HIERARCHY
ROOT Hips
{
  OFFSET -213.699 104.721 0.752556
  CHANNELS 6 Xposition Yposition Zposition Zrotation Xrotation Yrotation
  JOINT RightUpLeg
  {
    OFFSET -8.9458 -8.66707 0.101652
    CHANNELS 3 Zrotation Xrotation Yrotation
    JOINT RightLeg
    {
      OFFSET 0 -44.4227 1.3727
      CHANNELS 3 Zrotation Xrotation Yrotation
      JOINT RightFoot
      {
        OFFSET 0.253549 -42.0924 -1.46059
        CHANNELS 3 Zrotation Xrotation Yrotation
        JOINT RightToes
        {
          OFFSET 0.04 -4.41509 8.4991
          CHANNELS 3 Zrotation Xrotation Yrotation
          End Site
          {
            OFFSET -0.08 -0.137448 9.77979
          }
        }
      }
    }
  }
  JOINT Spine
  {
    OFFSET 0 11.8905 0
    CHANNELS 3 Zrotation Xrotation Yrotation
    JOINT Spine1
    {
      OFFSET 0 25.6574 0.127663
      CHANNELS 3 Zrotation Xrotation Yrotation
      JOINT HEad
      {
        OFFSET 0 8.73416 0.011341
        CHANNELS 3 Zrotation Xrotation Yrotation
        End Site
        {
          OFFSET -0.29 12.7742 2.51395
        }
      }
      JOINT LeftShoulder1
      {
        OFFSET 8.99 -0.362252 -0.22
        CHANNELS 3 Zrotation Xrotation Yrotation
        JOINT LeftArm
        {
          OFFSET 10.2827 -0.00337999 0.322123
          CHANNELS 3 Zrotation Xrotation Yrotation
          JOINT LeftForeArm
          {
            OFFSET 26.2597 0.099144 -1.42434
            CHANNELS 3 Zrotation Xrotation Yrotation
            JOINT LeftHand
            {
              OFFSET 22.0902 0.085362 1.02216
              CHANNELS 3 Zrotation Xrotation Yrotation
              End Site
              {
                OFFSET 13.419 -0.6 1.50291
              }
            }
          }
        }
      }
      JOINT RightShoulder
      {
        OFFSET -8.99 -0.362252 -0.22
        CHANNELS 3 Zrotation Xrotation Yrotation
        JOINT RightArm
        {
          OFFSET -10.2827 -0.00338 0.322123
          CHANNELS 3 Zrotation Xrotation Yrotation
          JOINT RightForeArm
          {
            OFFSET -26.364 0.099144 -1.42434
            CHANNELS 3 Zrotation Xrotation Yrotation
            JOINT RightHand
            {
              OFFSET -22.0324 0.085362 1.02216
              CHANNELS 3 Zrotation Xrotation Yrotation
              End Site
              {
                OFFSET -13.3284 -0.6 1.50291
              }
            }
          }
        }
      }
    }
  }
  JOINT LeftUpLeg
  {
    OFFSET 8.9458 -8.66707 0.101652
    CHANNELS 3 Zrotation Xrotation Yrotation
    JOINT LeftLeg
    {
      OFFSET 0 -44.4227 1.3727
      CHANNELS 3 Zrotation Xrotation Yrotation
      JOINT LeftFoot
      {
        OFFSET -0.253549 -42.0924 -1.46059
        CHANNELS 3 Zrotation Xrotation Yrotation
        JOINT LeftToes
        {
          OFFSET -0.04 -4.41509 8.4991
          CHANNELS 3 Zrotation Xrotation Yrotation
          End Site
          {
            OFFSET 0.08 -0.047448 9.77979
          }
        }
      }
    }
  }
}
MOTION
Frames:	7
Frame Time:	0.0333333
-211.149 104.867 0.0118887 1.30147 -0.31608 88.9931 1.35569 2.90191 -1.61066 -0.0675179 6.6752 -18.3436 -2.59222 -4.16626 -0.0716974 0.0462048 0.000530889 0.662642 -1.63363 -0.715571 -0.383327 0.120143 7.08165 -0.350221 -0.171401 5.292 -0.802006 -8.0266 -0.355845 5.7909 -19.0893 -72.3968 -23.3505 -3.59446 60.7356 8.31418 2.64792 9.7274 -5.33566 8.7855 0.0903452 -4.28468 2.047 -41.8297 3.40613 1.39736 27.298 0.98955 -1.89976 9.83465 1.0996 -0.281651 -0.112975 1.42285 1.84585 8.87704 10.4429 3.0476 -5.10712 -0.0503737 -1.30973e-009 8.75268e-006 -1.47588e-008 
-211.135 104.859 0.0377379 1.1866 -0.27559 88.9276 1.34028 2.7084 -1.56632 -0.10471 6.82044 -18.2991 -2.53041 -4.2201 -0.0717024 0.0462048 0.000530889 0.662642 -1.69487 -0.943966 -0.344145 0.163259 7.32344 -0.316097 -0.133839 5.19259 -0.973912 -8.01727 -0.361341 5.8275 -21.2351 -72.96 -25.3844 -2.69294 61.4336 7.91775 2.71198 9.71781 -5.58673 8.72316 0.0716782 -4.40262 2.30375 -41.6564 3.65637 1.47369 26.4808 1.13418 -2.11559 9.82501 0.812557 -0.309563 -0.224657 1.39378 1.84814 8.8756 10.5324 3.0812 -5.07026 -0.0503709 -1.30973e-009 8.75268e-006 -1.47588e-008 
-211.121 104.864 0.0709413 1.13778 -0.277186 88.8705 1.36897 2.69624 -1.53034 -0.122038 6.74664 -18.2778 -2.51047 -4.2105 -0.0717083 0.0462048 0.000530889 0.662642 -1.62553 -0.996156 -0.288511 0.145964 7.33922 -0.254401 0.127639 5.35018 -1.07427 -8.02423 -0.337814 5.67502 -23.3658 -73.6296 -27.3853 -1.60964 62.1423 7.42285 2.67371 9.72103 -5.61276 8.74053 0.069122 -4.41755 2.22775 -41.979 3.62295 1.34903 27.6859 0.845886 -2.16625 9.81596 1.23135 -0.283495 -0.29404 1.40577 1.83755 8.94172 10.5952 3.00579 -5.11593 -0.0503744 -1.30973e-009 8.75268e-006 -1.47588e-008 
-211.092 104.865 0.0955194 1.15464 -0.263724 88.9133 1.37396 2.75763 -1.53943 -0.127914 6.7076 -18.3077 -2.41602 -4.22263 -0.0717465 0.0462048 0.000530889 0.662642 -1.57766 -0.918535 -0.299939 0.0679543 7.25075 -0.247004 0.370223 5.64268 -0.826422 -7.95355 -0.305299 5.47447 -21.9258 -73.3982 -25.8291 -1.99497 61.6509 7.58263 2.75771 9.71535 -5.44884 8.90861 0.056116 -4.48879 2.0534 -41.8662 3.65851 1.47317 27.4743 0.935849 -2.20928 9.81478 0.982584 -0.310746 -0.264493 1.34904 1.89013 8.94621 10.6072 2.9761 -5.12006 -0.0503748 -1.30973e-009 8.75268e-006 -1.47588e-008 
-211.07 104.864 0.114974 1.11385 -0.248324 88.9936 1.37436 2.76175 -1.54326 -0.120722 6.64179 -18.392 -2.52357 -4.22218 -0.071802 0.0462048 0.000530889 0.662642 -1.618 -1.02273 -0.358172 0.118345 7.39321 -0.315561 0.402485 5.60646 -0.86879 -7.98629 -0.323101 5.58511 -22.4447 -73.535 -26.3769 -1.76949 61.803 7.47947 2.64005 9.72398 -5.75119 8.86592 0.03475 -4.62199 2.43414 -41.6482 4.09491 1.61054 26.4716 1.22447 -2.48121 9.81668 0.0587632 -0.30988 -0.283657 1.35085 1.87654 8.9079 10.5079 2.98922 -5.15246 -0.0502359 -1.30973e-009 8.75268e-006 -1.47588e-008 
-211.041 104.862 0.133184 1.17635 -0.237925 89.0501 1.38919 2.83469 -1.54029 -0.139018 6.6763 -18.4355 -2.47278 -4.20826 -0.0718696 0.0462048 0.000530889 0.662642 -1.5998 -0.892356 -0.425961 0.0626117 7.33313 -0.374529 0.534121 5.69827 -0.735654 -8.02705 -0.348375 5.74305 -22.9288 -73.7967 -27.0332 -1.47484 62.5279 7.3814 2.41212 9.73552 -6.53973 8.90968 0.0263478 -4.67016 2.48114 -42.0048 4.22666 1.45637 27.5735 0.893825 -2.17423 9.81688 0.940561 -0.287302 -0.223046 1.37056 1.86688 8.95041 10.407 2.92548 -5.1464 -0.0495374 -1.30973e-009 8.75268e-006 -1.47588e-008 
-210.992 104.858 0.152722 1.22592 -0.178148 89.0797 1.32744 2.86998 -1.61932 -0.124525 6.78814 -18.3983 -2.47046 -4.28586 -0.0719542 0.0462048 0.000530889 0.662642 -1.69137 -0.791077 -0.444657 0.0783203 7.27081 -0.390797 0.464107 5.73763 -0.774737 -7.94613 -0.358854 5.8209 -22.2297 -73.1811 -26.295 -2.25218 61.3446 7.68987 2.7325 9.71648 -5.52963 8.98859 -0.0159861 -4.92345 2.67223 -41.934 4.58089 1.56418 27.3427 0.977842 -2.26417 9.81879 0.651992 -0.342906 -0.100096 1.3311 1.87267 8.86407 10.4311 2.82915 -5.15579 -0.0485438 -1.30973e-009 8.75268e-006 -1.47588e-008 
